<svg >
<path d="M28.352 28.368H118.464V52.688H28.352V28.368ZM114.88 0.0799942H146.88V82H114.88V0.0799942ZM0.96 0.0799942H32.96V82H0.96V0.0799942ZM208.099 83.792C198.883 83.792 190.691 82.512 183.523 79.952C176.355 77.3067 170.68 73.5093 166.499 68.56C162.403 63.6107 160.355 57.6373 160.355 50.64C160.355 43.3013 162.403 37.1573 166.499 32.208C170.68 27.2587 176.355 23.5467 183.523 21.072C190.691 18.5973 198.883 17.36 208.099 17.36C218.339 17.36 227.171 18.768 234.595 21.584C242.104 24.3147 247.864 28.1973 251.875 33.232C255.971 38.1813 258.019 43.984 258.019 50.64C258.019 55.5893 256.867 60.112 254.563 64.208C252.259 68.2187 248.931 71.7173 244.579 74.704C240.227 77.6053 234.979 79.8667 228.835 81.488C222.691 83.024 215.779 83.792 208.099 83.792ZM219.619 64.336C226.104 64.336 232.035 63.952 237.411 63.184C242.872 62.3307 247.224 60.9227 250.467 58.96C253.795 56.9973 255.459 54.224 255.459 50.64C255.459 46.9707 253.795 44.1547 250.467 42.192C247.224 40.2293 242.872 38.864 237.411 38.096C232.035 37.328 226.104 36.944 219.619 36.944C210.915 36.944 204.174 38.096 199.395 40.4C194.616 42.6187 192.227 46.032 192.227 50.64C192.227 53.6267 193.294 56.144 195.427 58.192C197.56 60.24 200.675 61.776 204.771 62.8C208.867 63.824 213.816 64.336 219.619 64.336ZM255.459 19.28H286.179V82H257.251C257.251 82 257.08 81.0187 256.739 79.056C256.483 77.0933 256.184 74.2773 255.843 70.608C255.587 66.9387 255.459 62.6293 255.459 57.68V19.28ZM297.76 19.28H328.48V82H297.76V19.28ZM374.56 17.36C379.595 17.36 384.459 17.9147 389.152 19.024C393.845 20.048 398.027 21.84 401.696 24.4C405.451 26.96 408.437 30.4587 410.656 34.896C412.875 39.3333 413.984 44.9227 413.984 51.664V82H383.264V55.504C383.264 49.104 381.6 44.5813 378.272 41.936C374.944 39.2053 368.928 37.84 360.224 37.84C355.616 37.84 351.136 38.352 346.784 39.376C342.517 40.4 338.677 41.6373 335.264 43.088C331.851 44.4533 329.163 45.8187 327.2 47.184L326.944 42.32C327.285 40.784 328.437 38.6507 330.4 35.92C332.448 33.104 335.392 30.288 339.232 27.472C343.072 24.656 347.893 22.2667 353.696 20.304C359.584 18.3413 366.539 17.36 374.56 17.36ZM458.528 17.36C463.563 17.36 468.427 17.9147 473.12 19.024C477.813 20.048 481.995 21.84 485.664 24.4C489.419 26.96 492.405 30.4587 494.624 34.896C496.843 39.3333 497.952 44.9227 497.952 51.664V82H467.232V55.504C467.232 49.104 465.568 44.5813 462.24 41.936C458.912 39.2053 452.896 37.84 444.192 37.84C439.584 37.84 435.104 38.352 430.752 39.376C426.485 40.4 422.645 41.6373 419.232 43.088C415.819 44.4533 413.131 45.8187 411.168 47.184L410.912 41.04C411.253 39.76 412.533 37.84 414.752 35.28C416.971 32.72 420.085 30.0747 424.096 27.344C428.192 24.6133 433.099 22.2667 438.816 20.304C444.619 18.3413 451.189 17.36 458.528 17.36ZM609.99 38.48L540.742 68.304L539.59 62.8H610.758V82H511.43V62.8L580.166 32.976L581.318 38.48H511.43V19.28H609.99V38.48ZM670.724 83.792C661.508 83.792 653.316 82.512 646.148 79.952C638.98 77.3067 633.305 73.5093 629.124 68.56C625.028 63.6107 622.98 57.6373 622.98 50.64C622.98 43.3013 625.028 37.1573 629.124 32.208C633.305 27.2587 638.98 23.5467 646.148 21.072C653.316 18.5973 661.508 17.36 670.724 17.36C680.964 17.36 689.796 18.768 697.22 21.584C704.729 24.3147 710.489 28.1973 714.5 33.232C718.596 38.1813 720.644 43.984 720.644 50.64C720.644 55.5893 719.492 60.112 717.188 64.208C714.884 68.2187 711.556 71.7173 707.204 74.704C702.852 77.6053 697.604 79.8667 691.46 81.488C685.316 83.024 678.404 83.792 670.724 83.792ZM682.244 64.336C688.729 64.336 694.66 63.952 700.036 63.184C705.497 62.3307 709.849 60.9227 713.092 58.96C716.42 56.9973 718.084 54.224 718.084 50.64C718.084 46.9707 716.42 44.1547 713.092 42.192C709.849 40.2293 705.497 38.864 700.036 38.096C694.66 37.328 688.729 36.944 682.244 36.944C673.54 36.944 666.799 38.096 662.02 40.4C657.241 42.6187 654.852 46.032 654.852 50.64C654.852 53.6267 655.919 56.144 658.052 58.192C660.185 60.24 663.3 61.776 667.396 62.8C671.492 63.824 676.441 64.336 682.244 64.336ZM718.084 19.28H748.804V82H719.876C719.876 82 719.705 81.0187 719.364 79.056C719.108 77.0933 718.809 74.2773 718.468 70.608C718.212 66.9387 718.084 62.6293 718.084 57.68V19.28ZM931.594 56.912L919.69 63.696V0.0799942H951.69V82H919.69L823.306 26.192L835.21 19.28V82H803.21V0.0799942H835.21L931.594 56.912ZM1012.85 83.792C1003.63 83.792 995.441 82.512 988.273 79.952C981.105 77.3067 975.43 73.5093 971.249 68.56C967.153 63.6107 965.105 57.6373 965.105 50.64C965.105 43.3013 967.153 37.1573 971.249 32.208C975.43 27.2587 981.105 23.5467 988.273 21.072C995.441 18.5973 1003.63 17.36 1012.85 17.36C1023.09 17.36 1031.92 18.768 1039.35 21.584C1046.85 24.3147 1052.61 28.1973 1056.63 33.232C1060.72 38.1813 1062.77 43.984 1062.77 50.64C1062.77 55.5893 1061.62 60.112 1059.31 64.208C1057.01 68.2187 1053.68 71.7173 1049.33 74.704C1044.98 77.6053 1039.73 79.8667 1033.59 81.488C1027.44 83.024 1020.53 83.792 1012.85 83.792ZM1024.37 64.336C1030.85 64.336 1036.79 63.952 1042.16 63.184C1047.62 62.3307 1051.97 60.9227 1055.22 58.96C1058.55 56.9973 1060.21 54.224 1060.21 50.64C1060.21 46.9707 1058.55 44.1547 1055.22 42.192C1051.97 40.2293 1047.62 38.864 1042.16 38.096C1036.79 37.328 1030.85 36.944 1024.37 36.944C1015.67 36.944 1008.92 38.096 1004.15 40.4C999.366 42.6187 996.977 46.032 996.977 50.64C996.977 53.6267 998.044 56.144 1000.18 58.192C1002.31 60.24 1005.43 61.776 1009.52 62.8C1013.62 63.824 1018.57 64.336 1024.37 64.336ZM1060.21 19.28H1090.93V82H1062C1062 82 1061.83 81.0187 1061.49 79.056C1061.23 77.0933 1060.93 74.2773 1060.59 70.608C1060.34 66.9387 1060.21 62.6293 1060.21 57.68V19.28ZM1101.87 59.472H1130.16C1131.35 61.6907 1133.61 63.2267 1136.94 64.08C1140.36 64.9333 1145.22 65.36 1151.53 65.36C1156.4 65.36 1159.98 65.104 1162.29 64.592C1164.68 64.08 1166.21 63.3973 1166.89 62.544C1167.66 61.6907 1168.05 60.7947 1168.05 59.856C1168.05 58.4053 1167.24 57.424 1165.61 56.912C1164.08 56.3147 1161.43 55.9733 1157.68 55.888C1153.92 55.7173 1148.76 55.632 1142.19 55.632C1135.96 55.632 1130.37 55.376 1125.42 54.864C1120.56 54.2667 1116.42 53.3707 1113.01 52.176C1109.59 50.896 1106.99 49.1467 1105.2 46.928C1103.41 44.7093 1102.51 41.936 1102.51 38.608C1102.51 34.512 1103.83 31.0987 1106.48 28.368C1109.12 25.552 1112.71 23.376 1117.23 21.84C1121.75 20.2187 1126.96 19.0667 1132.85 18.384C1138.82 17.7013 1145.05 17.36 1151.53 17.36C1162.29 17.36 1171.08 18.4693 1177.9 20.688C1184.73 22.8213 1189.76 25.7227 1193.01 29.392C1196.25 33.0613 1197.83 37.2 1197.74 41.808H1170.22C1169.28 39.5893 1167.49 38.0533 1164.85 37.2C1162.29 36.3467 1157.85 35.92 1151.53 35.92C1145.56 35.92 1141.21 36.3893 1138.48 37.328C1135.83 38.1813 1134.51 39.5893 1134.51 41.552C1134.51 42.832 1135.15 43.8133 1136.43 44.496C1137.8 45.0933 1140.31 45.52 1143.98 45.776C1147.74 46.032 1153.2 46.16 1160.37 46.16C1165.32 46.16 1170.14 46.3307 1174.83 46.672C1179.61 47.0133 1183.88 47.7387 1187.63 48.848C1191.47 49.9573 1194.5 51.664 1196.72 53.968C1198.94 56.272 1200.05 59.4293 1200.05 63.44C1200.05 68.304 1198.04 72.272 1194.03 75.344C1190.1 78.3307 1184.52 80.5067 1177.26 81.872C1170.01 83.2373 1161.43 83.92 1151.53 83.92C1142.92 83.92 1135.62 83.3653 1129.65 82.256C1123.76 81.1467 1118.94 79.696 1115.18 77.904C1111.43 76.0267 1108.53 74.0213 1106.48 71.888C1104.52 69.6693 1103.19 67.4933 1102.51 65.36C1101.91 63.1413 1101.7 61.1787 1101.87 59.472ZM1296.79 59.472H1327C1326.23 64.4213 1323.75 68.7307 1319.57 72.4C1315.48 76.0693 1309.46 78.928 1301.52 80.976C1293.67 82.9387 1283.65 83.92 1271.44 83.92C1258.56 83.92 1247.42 82.896 1238.04 80.848C1228.73 78.8 1221.57 75.344 1216.53 70.48C1211.5 65.616 1208.98 59.0453 1208.98 50.768C1208.98 42.576 1211.41 36.048 1216.28 31.184C1221.23 26.2347 1228.35 22.6933 1237.65 20.56C1246.95 18.4267 1258.22 17.36 1271.44 17.36C1284.41 17.36 1295.04 18.512 1303.32 20.816C1311.59 23.12 1317.69 26.8747 1321.62 32.08C1325.55 37.2 1327.42 44.1547 1327.25 52.944H1240.21C1240.64 55.1627 1241.83 57.2107 1243.8 59.088C1245.84 60.9653 1248.96 62.5013 1253.14 63.696C1257.41 64.8053 1263.08 65.36 1270.16 65.36C1277.5 65.36 1283.52 64.848 1288.21 63.824C1292.99 62.8 1295.85 61.3493 1296.79 59.472ZM1270.16 35.92C1261.12 35.92 1254.21 36.9013 1249.43 38.864C1244.73 40.8267 1241.96 42.7893 1241.11 44.752H1297.43C1296.83 42.5333 1294.44 40.528 1290.26 38.736C1286.08 36.8587 1279.38 35.92 1270.16 35.92ZM1424.04 59.472H1454.25C1453.48 64.4213 1451 68.7307 1446.82 72.4C1442.73 76.0693 1436.71 78.928 1428.77 80.976C1420.92 82.9387 1410.9 83.92 1398.69 83.92C1385.81 83.92 1374.67 82.896 1365.29 80.848C1355.98 78.8 1348.82 75.344 1343.78 70.48C1338.75 65.616 1336.23 59.0453 1336.23 50.768C1336.23 42.576 1338.66 36.048 1343.53 31.184C1348.48 26.2347 1355.6 22.6933 1364.9 20.56C1374.2 18.4267 1385.47 17.36 1398.69 17.36C1411.66 17.36 1422.29 18.512 1430.57 20.816C1438.84 23.12 1444.94 26.8747 1448.87 32.08C1452.8 37.2 1454.67 44.1547 1454.5 52.944H1367.46C1367.89 55.1627 1369.08 57.2107 1371.05 59.088C1373.09 60.9653 1376.21 62.5013 1380.39 63.696C1384.66 64.8053 1390.33 65.36 1397.41 65.36C1404.75 65.36 1410.77 64.848 1415.46 63.824C1420.24 62.8 1423.1 61.3493 1424.04 59.472ZM1397.41 35.92C1388.37 35.92 1381.46 36.9013 1376.68 38.864C1371.98 40.8267 1369.21 42.7893 1368.36 44.752H1424.68C1424.08 42.5333 1421.69 40.528 1417.51 38.736C1413.33 36.8587 1406.63 35.92 1397.41 35.92ZM1464.76 19.28H1495.48V82H1464.76V19.28ZM1541.56 17.36C1546.59 17.36 1551.46 17.9147 1556.15 19.024C1560.85 20.048 1565.03 21.84 1568.7 24.4C1572.45 26.96 1575.44 30.4587 1577.66 34.896C1579.87 39.3333 1580.98 44.9227 1580.98 51.664V82H1550.26V55.504C1550.26 49.104 1548.6 44.5813 1545.27 41.936C1541.94 39.2053 1535.93 37.84 1527.22 37.84C1522.62 37.84 1518.14 38.352 1513.78 39.376C1509.52 40.4 1505.68 41.6373 1502.26 43.088C1498.85 44.4533 1496.16 45.8187 1494.2 47.184L1493.94 42.32C1494.29 40.784 1495.44 38.6507 1497.4 35.92C1499.45 33.104 1502.39 30.288 1506.23 27.472C1510.07 24.656 1514.89 22.2667 1520.7 20.304C1526.58 18.3413 1533.54 17.36 1541.56 17.36ZM1625.53 17.36C1630.56 17.36 1635.43 17.9147 1640.12 19.024C1644.81 20.048 1648.99 21.84 1652.66 24.4C1656.42 26.96 1659.41 30.4587 1661.62 34.896C1663.84 39.3333 1664.95 44.9227 1664.95 51.664V82H1634.23V55.504C1634.23 49.104 1632.57 44.5813 1629.24 41.936C1625.91 39.2053 1619.9 37.84 1611.19 37.84C1606.58 37.84 1602.1 38.352 1597.75 39.376C1593.49 40.4 1589.65 41.6373 1586.23 43.088C1582.82 44.4533 1580.13 45.8187 1578.17 47.184L1577.91 41.04C1578.25 39.76 1579.53 37.84 1581.75 35.28C1583.97 32.72 1587.09 30.0747 1591.1 27.344C1595.19 24.6133 1600.1 22.2667 1605.82 20.304C1611.62 18.3413 1618.19 17.36 1625.53 17.36Z" fill="white"/>
</svg>
